<svg width="846" height="226" viewBox="0 0 846 226" fill="none" xmlns="http://www.w3.org/2000/svg">
<path d="M2.84375 18H1.4375V6.72656H2.84375V12.2031H2.96875L7.90625 6.72656H9.67188L5.16406 11.5938L10.0859 18H8.26562L4.19531 12.5703L2.84375 14.0625V18ZM14.25 16.9688C15.6328 16.9688 16.6562 16.0625 16.6562 14.8594V14.0859L14.3906 14.2344C13.1094 14.3203 12.5469 14.7656 12.5469 15.6094C12.5469 16.4688 13.2734 16.9688 14.25 16.9688ZM14 18.1484C12.3672 18.1484 11.1562 17.1797 11.1562 15.6406C11.1562 14.1328 12.2656 13.2656 14.2266 13.1484L16.6562 13V12.2344C16.6562 11.1953 16.0078 10.625 14.75 10.625C13.7422 10.625 13.0391 11.0078 12.8516 11.6719H11.4922C11.6719 10.3203 13 9.42969 14.7969 9.42969C16.8516 9.42969 18 10.4844 18 12.2344V18H16.7188V16.7578H16.5938C16.0469 17.6562 15.125 18.1484 14 18.1484ZM20.4844 18V9.57812H21.7656V10.9062H21.8906C22.3125 9.97656 23.1328 9.42969 24.4219 9.42969C26.3125 9.42969 27.3672 10.5469 27.3672 12.5469V18H26.0234V12.875C26.0234 11.3594 25.3828 10.6406 24.0391 10.6406C22.6953 10.6406 21.8281 11.5391 21.8281 13.0156V18H20.4844ZM32.9453 18.1484C30.7891 18.1484 29.4062 16.4375 29.4062 13.7891C29.4062 11.1484 30.8047 9.42969 32.9453 9.42969C34.1172 9.42969 35.1094 9.98438 35.5859 10.9062H35.7031V6.23438H37.0469V18H35.7656V16.6562H35.6406C35.1094 17.5938 34.1094 18.1484 32.9453 18.1484ZM33.2578 10.6406C31.7266 10.6406 30.7969 11.8281 30.7969 13.7891C30.7969 15.7578 31.7188 16.9375 33.2578 16.9375C34.7891 16.9375 35.7344 15.7344 35.7344 13.7891C35.7344 11.8594 34.7812 10.6406 33.2578 10.6406ZM39.6875 18V9.57812H41.0312V18H39.6875ZM40.3594 7.86719C39.8438 7.86719 39.4219 7.44531 39.4219 6.92969C39.4219 6.41406 39.8438 5.99219 40.3594 5.99219C40.875 5.99219 41.2969 6.41406 41.2969 6.92969C41.2969 7.44531 40.875 7.86719 40.3594 7.86719ZM46.7109 18.1484C44.5547 18.1484 43.1719 16.4375 43.1719 13.7891C43.1719 11.1484 44.5703 9.42969 46.7109 9.42969C47.8828 9.42969 48.875 9.98438 49.3516 10.9062H49.4688V6.23438H50.8125V18H49.5312V16.6562H49.4062C48.875 17.5938 47.875 18.1484 46.7109 18.1484ZM47.0234 10.6406C45.4922 10.6406 44.5625 11.8281 44.5625 13.7891C44.5625 15.7578 45.4844 16.9375 47.0234 16.9375C48.5547 16.9375 49.5 15.7344 49.5 13.7891C49.5 11.8594 48.5469 10.6406 47.0234 10.6406ZM56.0156 16.9688C57.3984 16.9688 58.4219 16.0625 58.4219 14.8594V14.0859L56.1562 14.2344C54.875 14.3203 54.3125 14.7656 54.3125 15.6094C54.3125 16.4688 55.0391 16.9688 56.0156 16.9688ZM55.7656 18.1484C54.1328 18.1484 52.9219 17.1797 52.9219 15.6406C52.9219 14.1328 54.0312 13.2656 55.9922 13.1484L58.4219 13V12.2344C58.4219 11.1953 57.7734 10.625 56.5156 10.625C55.5078 10.625 54.8047 11.0078 54.6172 11.6719H53.2578C53.4375 10.3203 54.7656 9.42969 56.5625 9.42969C58.6172 9.42969 59.7656 10.4844 59.7656 12.2344V18H58.4844V16.7578H58.3594C57.8125 17.6562 56.8906 18.1484 55.7656 18.1484ZM62.8125 7.39844H64.1562V9.57812H66.0312V10.7031H64.1562V15.4688C64.1562 16.4609 64.5312 16.8828 65.4062 16.8828C65.6484 16.8828 65.7812 16.875 66.0312 16.8516V17.9844C65.7656 18.0312 65.5078 18.0625 65.2422 18.0625C63.5078 18.0625 62.8125 17.4219 62.8125 15.8125V10.7031H61.4531V9.57812H62.8125V7.39844ZM77.0859 18H75.6797V7.99219H72.0469V6.72656H80.7188V7.99219H77.0859V18ZM84.5156 10.6172C83.1719 10.6172 82.2344 11.6016 82.1328 13.0938H86.7734C86.7422 11.6016 85.8516 10.6172 84.5156 10.6172ZM86.7344 15.8203H88.0781C87.6719 17.2656 86.375 18.1484 84.5312 18.1484C82.1953 18.1484 80.7344 16.4609 80.7344 13.7969C80.7344 11.1484 82.2188 9.42969 84.5312 9.42969C86.8047 9.42969 88.1875 11.0469 88.1875 13.6641V14.1797H82.1328V14.2422C82.2031 15.9062 83.1328 16.9609 84.5625 16.9609C85.6484 16.9609 86.3828 16.5625 86.7344 15.8203ZM90.2969 18V9.57812H91.5781V10.8281H91.7031C91.9531 10.0078 92.9219 9.42969 94.0391 9.42969C94.2578 9.42969 94.5391 9.44531 94.7109 9.46875V10.8125C94.6016 10.7812 94.1172 10.7344 93.8516 10.7344C92.5703 10.7344 91.6406 11.5938 91.6406 12.7812V18H90.2969ZM100.648 9.42969C102.797 9.42969 104.188 11.1406 104.188 13.7891C104.188 16.4219 102.789 18.1484 100.648 18.1484C99.4453 18.1484 98.4766 17.625 98.0156 16.7344H97.8906V20.8125H96.5469V9.57812H97.8281V10.9844H97.9531C98.4922 10.0156 99.5 9.42969 100.648 9.42969ZM100.328 16.9375C101.875 16.9375 102.797 15.7578 102.797 13.7891C102.797 11.8203 101.875 10.6406 100.336 10.6406C98.8125 10.6406 97.8516 11.8516 97.8516 13.7891C97.8516 15.7188 98.8125 16.9375 100.328 16.9375ZM106.328 18V9.57812H107.672V18H106.328ZM107 7.86719C106.484 7.86719 106.062 7.44531 106.062 6.92969C106.062 6.41406 106.484 5.99219 107 5.99219C107.516 5.99219 107.938 6.41406 107.938 6.92969C107.938 7.44531 107.516 7.86719 107 7.86719ZM110.312 18V6.23438H111.656V18H110.312ZM114.297 18V9.57812H115.641V18H114.297ZM114.969 7.86719C114.453 7.86719 114.031 7.44531 114.031 6.92969C114.031 6.41406 114.453 5.99219 114.969 5.99219C115.484 5.99219 115.906 6.41406 115.906 6.92969C115.906 7.44531 115.484 7.86719 114.969 7.86719ZM118.281 18V6.23438H119.625V10.9062H119.75C120.172 9.97656 121.055 9.42969 122.344 9.42969C124.125 9.42969 125.25 10.5703 125.25 12.5469V18H123.906V12.875C123.906 11.3828 123.234 10.6406 121.961 10.6406C120.453 10.6406 119.625 11.5938 119.625 13.0156V18H118.281Z" fill="#737373"/>
<path d="M230.22 18H228.814V6.72656H230.22V18ZM232.923 18V9.57812H234.204V10.9062H234.329C234.751 9.97656 235.572 9.42969 236.861 9.42969C238.751 9.42969 239.806 10.5469 239.806 12.5469V18H238.462V12.875C238.462 11.3594 237.822 10.6406 236.478 10.6406C235.134 10.6406 234.267 11.5391 234.267 13.0156V18H232.923ZM242.829 7.39844H244.173V9.57812H246.048V10.7031H244.173V15.4688C244.173 16.4609 244.548 16.8828 245.423 16.8828C245.665 16.8828 245.798 16.875 246.048 16.8516V17.9844C245.783 18.0312 245.525 18.0625 245.259 18.0625C243.525 18.0625 242.829 17.4219 242.829 15.8125V10.7031H241.47V9.57812H242.829V7.39844ZM251.314 10.6172C249.97 10.6172 249.033 11.6016 248.931 13.0938H253.572C253.54 11.6016 252.65 10.6172 251.314 10.6172ZM253.533 15.8203H254.876C254.47 17.2656 253.173 18.1484 251.329 18.1484C248.994 18.1484 247.533 16.4609 247.533 13.7969C247.533 11.1484 249.017 9.42969 251.329 9.42969C253.603 9.42969 254.986 11.0469 254.986 13.6641V14.1797H248.931V14.2422C249.001 15.9062 249.931 16.9609 251.361 16.9609C252.447 16.9609 253.181 16.5625 253.533 15.8203ZM257.095 18V9.57812H258.376V10.8281H258.501C258.751 10.0078 259.72 9.42969 260.837 9.42969C261.056 9.42969 261.337 9.44531 261.509 9.46875V10.8125C261.4 10.7812 260.915 10.7344 260.65 10.7344C259.369 10.7344 258.439 11.5938 258.439 12.7812V18H257.095ZM270.064 9.57812L266.947 18H265.572L262.454 9.57812H263.892L266.197 16.5156H266.322L268.626 9.57812H270.064ZM271.892 18V9.57812H273.236V18H271.892ZM272.564 7.86719C272.048 7.86719 271.626 7.44531 271.626 6.92969C271.626 6.41406 272.048 5.99219 272.564 5.99219C273.079 5.99219 273.501 6.41406 273.501 6.92969C273.501 7.44531 273.079 7.86719 272.564 7.86719ZM279.158 10.6172C277.814 10.6172 276.876 11.6016 276.775 13.0938H281.415C281.384 11.6016 280.494 10.6172 279.158 10.6172ZM281.376 15.8203H282.72C282.314 17.2656 281.017 18.1484 279.173 18.1484C276.837 18.1484 275.376 16.4609 275.376 13.7969C275.376 11.1484 276.861 9.42969 279.173 9.42969C281.447 9.42969 282.829 11.0469 282.829 13.6641V14.1797H276.775V14.2422C276.845 15.9062 277.775 16.9609 279.204 16.9609C280.29 16.9609 281.025 16.5625 281.376 15.8203ZM295.533 9.57812L293.173 18H291.806L289.923 11.4844H289.798L287.923 18H286.564L284.204 9.57812H285.564L287.22 16.3125H287.345L289.228 9.57812H290.517L292.4 16.3125H292.525L294.181 9.57812H295.533Z" fill="#737373"/>
<path d="M444.803 6.46094C448.006 6.46094 449.96 8.74219 449.96 12.3594C449.96 15.9609 448.022 18.2656 444.803 18.2656C441.569 18.2656 439.624 15.9688 439.624 12.3594C439.624 8.73438 441.616 6.46094 444.803 6.46094ZM444.803 7.75781C442.506 7.75781 441.069 9.53906 441.069 12.3594C441.069 15.1562 442.46 16.9688 444.803 16.9688C447.116 16.9688 448.514 15.1562 448.514 12.3594C448.514 9.53906 447.108 7.75781 444.803 7.75781ZM452.796 18V10.7031H451.397V9.57812H452.796V8.64062C452.796 6.96094 453.639 6.15625 455.241 6.15625C455.569 6.15625 455.866 6.17969 456.147 6.23438V7.32812C455.983 7.29688 455.756 7.28906 455.514 7.28906C454.546 7.28906 454.139 7.75781 454.139 8.67969V9.57812H456.069V10.7031H454.139V18H452.796ZM458.592 18V10.7031H457.194V9.57812H458.592V8.64062C458.592 6.96094 459.436 6.15625 461.038 6.15625C461.366 6.15625 461.663 6.17969 461.944 6.23438V7.32812C461.78 7.29688 461.553 7.28906 461.311 7.28906C460.342 7.28906 459.936 7.75781 459.936 8.67969V9.57812H461.866V10.7031H459.936V18H458.592ZM466.827 10.6172C465.483 10.6172 464.546 11.6016 464.444 13.0938H469.085C469.053 11.6016 468.163 10.6172 466.827 10.6172ZM469.046 15.8203H470.389C469.983 17.2656 468.686 18.1484 466.842 18.1484C464.506 18.1484 463.046 16.4609 463.046 13.7969C463.046 11.1484 464.53 9.42969 466.842 9.42969C469.116 9.42969 470.499 11.0469 470.499 13.6641V14.1797H464.444V14.2422C464.514 15.9062 465.444 16.9609 466.874 16.9609C467.96 16.9609 468.694 16.5625 469.046 15.8203ZM472.608 18V9.57812H473.889V10.8281H474.014C474.264 10.0078 475.233 9.42969 476.35 9.42969C476.569 9.42969 476.85 9.44531 477.022 9.46875V10.8125C476.913 10.7812 476.428 10.7344 476.163 10.7344C474.881 10.7344 473.952 11.5938 473.952 12.7812V18H472.608ZM478.733 18V9.57812H480.077V18H478.733ZM479.405 7.86719C478.889 7.86719 478.467 7.44531 478.467 6.92969C478.467 6.41406 478.889 5.99219 479.405 5.99219C479.921 5.99219 480.342 6.41406 480.342 6.92969C480.342 7.44531 479.921 7.86719 479.405 7.86719ZM482.639 18V9.57812H483.921V10.9062H484.046C484.467 9.97656 485.288 9.42969 486.577 9.42969C488.467 9.42969 489.522 10.5469 489.522 12.5469V18H488.178V12.875C488.178 11.3594 487.538 10.6406 486.194 10.6406C484.85 10.6406 483.983 11.5391 483.983 13.0156V18H482.639ZM495.389 16.6875C496.952 16.6875 497.889 15.5 497.889 13.6641C497.889 11.8281 496.944 10.6406 495.389 10.6406C493.827 10.6406 492.952 11.8281 492.952 13.6641C492.952 15.5 493.827 16.6875 495.389 16.6875ZM495.452 21.2344C493.421 21.2344 492.124 20.3203 491.921 18.9297H493.342C493.491 19.6172 494.241 20.0625 495.452 20.0625C496.96 20.0625 497.858 19.3203 497.858 18.0781V16.4219H497.733C497.202 17.3516 496.249 17.875 495.092 17.875C492.913 17.875 491.561 16.1875 491.561 13.6641C491.561 11.1406 492.928 9.42969 495.092 9.42969C496.272 9.42969 497.311 10.0078 497.796 10.9141H497.921V9.57812H499.202V18.1484C499.202 20.0312 497.749 21.2344 495.452 21.2344Z" fill="#737373"/>
<path d="M652.319 6.72656H656.186C659.53 6.72656 661.507 8.8125 661.507 12.3594C661.507 15.9141 659.538 18 656.186 18H652.319V6.72656ZM653.725 7.99219V16.7344H656.093C658.608 16.7344 660.069 15.125 660.069 12.375C660.069 9.61719 658.593 7.99219 656.093 7.99219H653.725ZM663.804 18V9.57812H665.147V18H663.804ZM664.475 7.86719C663.96 7.86719 663.538 7.44531 663.538 6.92969C663.538 6.41406 663.96 5.99219 664.475 5.99219C664.991 5.99219 665.413 6.41406 665.413 6.92969C665.413 7.44531 664.991 7.86719 664.475 7.86719ZM668.272 7.39844H669.616V9.57812H671.491V10.7031H669.616V15.4688C669.616 16.4609 669.991 16.8828 670.866 16.8828C671.108 16.8828 671.241 16.875 671.491 16.8516V17.9844C671.225 18.0312 670.968 18.0625 670.702 18.0625C668.968 18.0625 668.272 17.4219 668.272 15.8125V10.7031H666.913V9.57812H668.272V7.39844ZM676.757 10.6172C675.413 10.6172 674.475 11.6016 674.374 13.0938H679.015C678.983 11.6016 678.093 10.6172 676.757 10.6172ZM678.975 15.8203H680.319C679.913 17.2656 678.616 18.1484 676.772 18.1484C674.436 18.1484 672.975 16.4609 672.975 13.7969C672.975 11.1484 674.46 9.42969 676.772 9.42969C679.046 9.42969 680.429 11.0469 680.429 13.6641V14.1797H674.374V14.2422C674.444 15.9062 675.374 16.9609 676.804 16.9609C677.89 16.9609 678.624 16.5625 678.975 15.8203ZM682.538 18V9.57812H683.819V10.8281H683.944C684.194 10.0078 685.163 9.42969 686.28 9.42969C686.499 9.42969 686.78 9.44531 686.952 9.46875V10.8125C686.843 10.7812 686.358 10.7344 686.093 10.7344C684.811 10.7344 683.882 11.5938 683.882 12.7812V18H682.538ZM688.663 18V9.57812H690.007V18H688.663ZM689.335 7.86719C688.819 7.86719 688.397 7.44531 688.397 6.92969C688.397 6.41406 688.819 5.99219 689.335 5.99219C689.85 5.99219 690.272 6.41406 690.272 6.92969C690.272 7.44531 689.85 7.86719 689.335 7.86719ZM692.569 18V9.57812H693.85V10.9062H693.975C694.358 9.96875 695.202 9.42969 696.327 9.42969C697.468 9.42969 698.265 10.0312 698.655 10.9062H698.78C699.233 10.0156 700.194 9.42969 701.358 9.42969C703.077 9.42969 704.038 10.4141 704.038 12.1797V18H702.694V12.4922C702.694 11.25 702.108 10.6406 700.921 10.6406C699.749 10.6406 698.968 11.5156 698.968 12.5859V18H697.624V12.2812C697.624 11.2812 696.929 10.6406 695.866 10.6406C694.765 10.6406 693.913 11.5938 693.913 12.7812V18H692.569ZM709.085 16.9688C710.468 16.9688 711.491 16.0625 711.491 14.8594V14.0859L709.225 14.2344C707.944 14.3203 707.382 14.7656 707.382 15.6094C707.382 16.4688 708.108 16.9688 709.085 16.9688ZM708.835 18.1484C707.202 18.1484 705.991 17.1797 705.991 15.6406C705.991 14.1328 707.1 13.2656 709.061 13.1484L711.491 13V12.2344C711.491 11.1953 710.843 10.625 709.585 10.625C708.577 10.625 707.874 11.0078 707.686 11.6719H706.327C706.507 10.3203 707.835 9.42969 709.632 9.42969C711.686 9.42969 712.835 10.4844 712.835 12.2344V18H711.554V16.7578H711.429C710.882 17.6562 709.96 18.1484 708.835 18.1484Z" fill="#737373"/>
<g clip-path="url(#clip0_8927_5938)">
<path d="M0 94L212 124V278H0V94Z" fill="#002C8C"/>
<path d="M212 124L424 184.5V278H212V124Z" fill="#0958D9"/>
<path d="M423 185L635 216.5V279H423V185Z" fill="#4096FF"/>
<path d="M635 216H847V277H635V216Z" fill="#91CAFF"/>
</g>
<line x1="211.747" y1="124" x2="211.747" y2="224" stroke="white"/>
<line x1="211.747" y1="-2.16232e-08" x2="211.747" y2="124" stroke="#E0E0E0"/>
<line x1="422.995" y1="-2.16232e-08" x2="422.995" y2="216" stroke="#E0E0E0"/>
<line x1="635.253" y1="-2.16232e-08" x2="635.253" y2="216" stroke="#E0E0E0"/>
<line x1="422.995" y1="185" x2="422.995" y2="224" stroke="white"/>
<line x1="635.253" y1="216" x2="635.253" y2="226" stroke="white"/>
<path d="M3.45898 80V71.5029H3.34961L0.84082 73.3213V72.0225L3.46582 70.1357H4.68945V80H3.45898ZM10.9512 80.2324C8.72949 80.2324 7.45117 78.3457 7.45117 75.0645C7.45117 71.8105 8.74316 69.9033 10.9512 69.9033C13.1455 69.9033 14.4375 71.8174 14.4375 75.085C14.4375 78.3594 13.166 80.2324 10.9512 80.2324ZM10.9512 79.1592C12.4072 79.1592 13.2002 77.71 13.2002 75.0645C13.2002 72.4463 12.3936 70.9834 10.9512 70.9834C9.50879 70.9834 8.68848 72.46 8.68848 75.0645C8.68848 77.7031 9.49512 79.1592 10.9512 79.1592ZM19.7695 80.2324C17.5479 80.2324 16.2695 78.3457 16.2695 75.0645C16.2695 71.8105 17.5615 69.9033 19.7695 69.9033C21.9639 69.9033 23.2559 71.8174 23.2559 75.085C23.2559 78.3594 21.9844 80.2324 19.7695 80.2324ZM19.7695 79.1592C21.2256 79.1592 22.0186 77.71 22.0186 75.0645C22.0186 72.4463 21.2119 70.9834 19.7695 70.9834C18.3271 70.9834 17.5068 72.46 17.5068 75.0645C17.5068 77.7031 18.3135 79.1592 19.7695 79.1592ZM25.7031 80.0684C25.2178 80.0684 24.8145 79.665 24.8145 79.1797C24.8145 78.6875 25.2178 78.291 25.7031 78.291C26.1953 78.291 26.5918 78.6875 26.5918 79.1797C26.5918 79.665 26.1953 80.0684 25.7031 80.0684ZM31.6504 80.2324C29.4287 80.2324 28.1504 78.3457 28.1504 75.0645C28.1504 71.8105 29.4424 69.9033 31.6504 69.9033C33.8447 69.9033 35.1367 71.8174 35.1367 75.085C35.1367 78.3594 33.8652 80.2324 31.6504 80.2324ZM31.6504 79.1592C33.1064 79.1592 33.8994 77.71 33.8994 75.0645C33.8994 72.4463 33.0928 70.9834 31.6504 70.9834C30.208 70.9834 29.3877 72.46 29.3877 75.0645C29.3877 77.7031 30.1943 79.1592 31.6504 79.1592ZM40.4688 80.2324C38.2471 80.2324 36.9688 78.3457 36.9688 75.0645C36.9688 71.8105 38.2607 69.9033 40.4688 69.9033C42.6631 69.9033 43.9551 71.8174 43.9551 75.085C43.9551 78.3594 42.6836 80.2324 40.4688 80.2324ZM40.4688 79.1592C41.9248 79.1592 42.7178 77.71 42.7178 75.0645C42.7178 72.4463 41.9111 70.9834 40.4688 70.9834C39.0264 70.9834 38.2061 72.46 38.2061 75.0645C38.2061 77.7031 39.0127 79.1592 40.4688 79.1592ZM49.6221 72.3369C49.6221 73.7314 48.7539 74.7158 47.5234 74.7158C46.293 74.7158 45.418 73.7314 45.418 72.3369C45.418 70.9492 46.293 69.9648 47.5234 69.9648C48.7539 69.9648 49.6221 70.9424 49.6221 72.3369ZM47.5234 73.8408C48.125 73.8408 48.5283 73.2393 48.5283 72.3369C48.5283 71.4141 48.1387 70.8398 47.5234 70.8398C46.9082 70.8398 46.5117 71.4277 46.5117 72.3369C46.5117 73.2461 46.915 73.8408 47.5234 73.8408ZM47.4141 80H46.1562L49.9229 74.8594L53.3818 70.1357H54.626L50.7979 75.3721L47.4141 80ZM55.3301 77.792C55.3301 79.1865 54.4619 80.1709 53.2314 80.1709C52.001 80.1709 51.126 79.1865 51.126 77.792C51.126 76.4043 52.001 75.4199 53.2314 75.4199C54.4619 75.4199 55.3301 76.3975 55.3301 77.792ZM53.2314 79.2959C53.833 79.2959 54.2363 78.6943 54.2363 77.792C54.2363 76.8691 53.8467 76.2949 53.2314 76.2949C52.6162 76.2949 52.2197 76.8828 52.2197 77.792C52.2197 78.7012 52.623 79.2959 53.2314 79.2959Z" fill="#1F1F1F"/>
<path d="M9.71875 55.5156C5.89062 55.5156 3.04688 53.25 2.32812 49.625H5.21875C5.82812 51.7344 7.53125 53.0156 9.75 53.0156C13.4219 53.0156 15.5 49.7656 15.6562 43.7656H15.5312H15.4688H15.4062C14.2969 45.9531 12.0938 47.2344 9.40625 47.2344C5.10938 47.2344 2 44.0625 2 39.6875C2 35.1562 5.28125 31.9219 9.90625 31.9219C13.2812 31.9219 15.8906 33.7188 17.2969 37.0469C18.0312 38.7656 18.3906 40.8438 18.3906 43.3281C18.3906 51.0781 15.2344 55.5156 9.71875 55.5156ZM9.90625 44.7969C12.8906 44.7969 15.0312 42.6719 15.0312 39.6875C15.0312 36.6719 12.8281 34.3906 9.9375 34.3906C7.04688 34.3906 4.84375 36.6406 4.84375 39.5938C4.84375 42.6719 6.92188 44.7969 9.90625 44.7969ZM30.8906 55.5156C27.5 55.5156 24.9062 53.7031 23.5 50.3906C22.7656 48.6719 22.4062 46.5938 22.4062 44.1094C22.4062 36.3594 25.5625 31.9219 31.0781 31.9219C34.9062 31.9219 37.75 34.1875 38.4688 37.8125H35.5781C34.9688 35.7031 33.2656 34.4219 31.0469 34.4219C27.375 34.4219 25.2969 37.6719 25.1406 43.6719H25.3906C26.5 41.4844 28.7031 40.2031 31.3906 40.2031C35.6875 40.2031 38.7969 43.375 38.7969 47.75C38.7969 52.2812 35.5156 55.5156 30.8906 55.5156ZM30.8594 53.0469C33.75 53.0469 35.9531 50.7969 35.9531 47.8438C35.9531 44.7656 33.875 42.6406 30.8906 42.6406C27.9062 42.6406 25.7656 44.7656 25.7656 47.75C25.7656 50.7656 27.9688 53.0469 30.8594 53.0469Z" fill="black"/>
<path d="M228.887 80L233.317 71.332V71.2363H228.039V70.1357H234.568V71.2773L230.179 80H228.887ZM239.578 80.2324C237.712 80.2324 236.372 79.0771 236.263 77.375H237.473C237.582 78.4414 238.43 79.1523 239.592 79.1523C240.911 79.1523 241.793 78.25 241.793 76.8965C241.793 75.543 240.905 74.6201 239.613 74.6201C238.717 74.6201 237.979 75.0234 237.576 75.7275H236.42L236.96 70.1357H242.463V71.2363H237.924L237.644 74.4014H237.753C238.232 73.8408 238.929 73.5605 239.838 73.5605C241.711 73.5605 243.024 74.9209 243.024 76.8623C243.024 78.8652 241.622 80.2324 239.578 80.2324ZM245.492 80.0684C245.006 80.0684 244.603 79.665 244.603 79.1797C244.603 78.6875 245.006 78.291 245.492 78.291C245.984 78.291 246.38 78.6875 246.38 79.1797C246.38 79.665 245.984 80.0684 245.492 80.0684ZM251.439 80.2324C249.217 80.2324 247.939 78.3457 247.939 75.0645C247.939 71.8105 249.231 69.9033 251.439 69.9033C253.633 69.9033 254.925 71.8174 254.925 75.085C254.925 78.3594 253.654 80.2324 251.439 80.2324ZM251.439 79.1592C252.895 79.1592 253.688 77.71 253.688 75.0645C253.688 72.4463 252.881 70.9834 251.439 70.9834C249.996 70.9834 249.176 72.46 249.176 75.0645C249.176 77.7031 249.983 79.1592 251.439 79.1592ZM260.257 80.2324C258.036 80.2324 256.757 78.3457 256.757 75.0645C256.757 71.8105 258.049 69.9033 260.257 69.9033C262.452 69.9033 263.744 71.8174 263.744 75.085C263.744 78.3594 262.472 80.2324 260.257 80.2324ZM260.257 79.1592C261.713 79.1592 262.506 77.71 262.506 75.0645C262.506 72.4463 261.7 70.9834 260.257 70.9834C258.815 70.9834 257.995 72.46 257.995 75.0645C257.995 77.7031 258.801 79.1592 260.257 79.1592ZM269.411 72.3369C269.411 73.7314 268.542 74.7158 267.312 74.7158C266.081 74.7158 265.206 73.7314 265.206 72.3369C265.206 70.9492 266.081 69.9648 267.312 69.9648C268.542 69.9648 269.411 70.9424 269.411 72.3369ZM267.312 73.8408C267.913 73.8408 268.317 73.2393 268.317 72.3369C268.317 71.4141 267.927 70.8398 267.312 70.8398C266.697 70.8398 266.3 71.4277 266.3 72.3369C266.3 73.2461 266.703 73.8408 267.312 73.8408ZM267.203 80H265.945L269.711 74.8594L273.17 70.1357H274.414L270.586 75.3721L267.203 80ZM275.119 77.792C275.119 79.1865 274.25 80.1709 273.02 80.1709C271.789 80.1709 270.914 79.1865 270.914 77.792C270.914 76.4043 271.789 75.4199 273.02 75.4199C274.25 75.4199 275.119 76.3975 275.119 77.792ZM273.02 79.2959C273.621 79.2959 274.025 78.6943 274.025 77.792C274.025 76.8691 273.635 76.2949 273.02 76.2949C272.405 76.2949 272.008 76.8828 272.008 77.792C272.008 78.7012 272.411 79.2959 273.02 79.2959Z" fill="#1F1F1F"/>
<path d="M443.706 72.9111C443.706 71.1611 445.032 69.9033 446.864 69.9033C448.634 69.9033 449.988 71.1064 449.988 72.6719C449.988 73.6973 449.523 74.4971 447.903 76.2334L445.531 78.7832V78.8926H450.152V80H443.767V79.1523L447.178 75.4268C448.45 74.0459 448.757 73.5127 448.757 72.7197C448.757 71.7354 447.917 70.9766 446.83 70.9766C445.674 70.9766 444.895 71.749 444.895 72.9111V72.918H443.706V72.9111ZM455.484 80.2324C453.618 80.2324 452.278 79.0771 452.169 77.375H453.379C453.488 78.4414 454.336 79.1523 455.498 79.1523C456.817 79.1523 457.699 78.25 457.699 76.8965C457.699 75.543 456.81 74.6201 455.518 74.6201C454.623 74.6201 453.884 75.0234 453.481 75.7275H452.326L452.866 70.1357H458.369V71.2363H453.83L453.549 74.4014H453.659C454.137 73.8408 454.835 73.5605 455.744 73.5605C457.617 73.5605 458.929 74.9209 458.929 76.8623C458.929 78.8652 457.528 80.2324 455.484 80.2324ZM461.397 80.0684C460.912 80.0684 460.508 79.665 460.508 79.1797C460.508 78.6875 460.912 78.291 461.397 78.291C461.889 78.291 462.286 78.6875 462.286 79.1797C462.286 79.665 461.889 80.0684 461.397 80.0684ZM467.344 80.2324C465.123 80.2324 463.844 78.3457 463.844 75.0645C463.844 71.8105 465.136 69.9033 467.344 69.9033C469.539 69.9033 470.831 71.8174 470.831 75.085C470.831 78.3594 469.559 80.2324 467.344 80.2324ZM467.344 79.1592C468.8 79.1592 469.593 77.71 469.593 75.0645C469.593 72.4463 468.787 70.9834 467.344 70.9834C465.902 70.9834 465.082 72.46 465.082 75.0645C465.082 77.7031 465.888 79.1592 467.344 79.1592ZM476.163 80.2324C473.941 80.2324 472.663 78.3457 472.663 75.0645C472.663 71.8105 473.955 69.9033 476.163 69.9033C478.357 69.9033 479.649 71.8174 479.649 75.085C479.649 78.3594 478.378 80.2324 476.163 80.2324ZM476.163 79.1592C477.619 79.1592 478.412 77.71 478.412 75.0645C478.412 72.4463 477.605 70.9834 476.163 70.9834C474.72 70.9834 473.9 72.46 473.9 75.0645C473.9 77.7031 474.707 79.1592 476.163 79.1592ZM485.316 72.3369C485.316 73.7314 484.448 74.7158 483.217 74.7158C481.987 74.7158 481.112 73.7314 481.112 72.3369C481.112 70.9492 481.987 69.9648 483.217 69.9648C484.448 69.9648 485.316 70.9424 485.316 72.3369ZM483.217 73.8408C483.819 73.8408 484.222 73.2393 484.222 72.3369C484.222 71.4141 483.833 70.8398 483.217 70.8398C482.602 70.8398 482.206 71.4277 482.206 72.3369C482.206 73.2461 482.609 73.8408 483.217 73.8408ZM483.108 80H481.85L485.617 74.8594L489.076 70.1357H490.32L486.492 75.3721L483.108 80ZM491.024 77.792C491.024 79.1865 490.156 80.1709 488.925 80.1709C487.695 80.1709 486.82 79.1865 486.82 77.792C486.82 76.4043 487.695 75.4199 488.925 75.4199C490.156 75.4199 491.024 76.3975 491.024 77.792ZM488.925 79.2959C489.527 79.2959 489.93 78.6943 489.93 77.792C489.93 76.8691 489.541 76.2949 488.925 76.2949C488.31 76.2949 487.914 76.8828 487.914 77.792C487.914 78.7012 488.317 79.2959 488.925 79.2959Z" fill="#1F1F1F"/>
<path d="M654.341 80V71.5029H654.231L651.723 73.3213V72.0225L654.348 70.1357H655.571V80H654.341ZM658.456 72.9111C658.456 71.1611 659.782 69.9033 661.614 69.9033C663.385 69.9033 664.738 71.1064 664.738 72.6719C664.738 73.6973 664.273 74.4971 662.653 76.2334L660.281 78.7832V78.8926H664.902V80H658.517V79.1523L661.929 75.4268C663.2 74.0459 663.508 73.5127 663.508 72.7197C663.508 71.7354 662.667 70.9766 661.58 70.9766C660.425 70.9766 659.645 71.749 659.645 72.9111V72.918H658.456V72.9111ZM667.527 82.5088H666.645L667.295 78.6191H668.6L667.527 82.5088ZM673.734 80.2324C671.868 80.2324 670.528 79.0771 670.419 77.375H671.629C671.738 78.4414 672.586 79.1523 673.748 79.1523C675.067 79.1523 675.949 78.25 675.949 76.8965C675.949 75.543 675.06 74.6201 673.768 74.6201C672.873 74.6201 672.135 75.0234 671.731 75.7275H670.576L671.116 70.1357H676.619V71.2363H672.08L671.8 74.4014H671.909C672.388 73.8408 673.085 73.5605 673.994 73.5605C675.867 73.5605 677.18 74.9209 677.18 76.8623C677.18 78.8652 675.778 80.2324 673.734 80.2324ZM682.464 80.2324C680.242 80.2324 678.964 78.3457 678.964 75.0645C678.964 71.8105 680.256 69.9033 682.464 69.9033C684.658 69.9033 685.95 71.8174 685.95 75.085C685.95 78.3594 684.679 80.2324 682.464 80.2324ZM682.464 79.1592C683.92 79.1592 684.713 77.71 684.713 75.0645C684.713 72.4463 683.906 70.9834 682.464 70.9834C681.021 70.9834 680.201 72.46 680.201 75.0645C680.201 77.7031 681.008 79.1592 682.464 79.1592ZM691.617 72.3369C691.617 73.7314 690.749 74.7158 689.518 74.7158C688.288 74.7158 687.413 73.7314 687.413 72.3369C687.413 70.9492 688.288 69.9648 689.518 69.9648C690.749 69.9648 691.617 70.9424 691.617 72.3369ZM689.518 73.8408C690.12 73.8408 690.523 73.2393 690.523 72.3369C690.523 71.4141 690.134 70.8398 689.518 70.8398C688.903 70.8398 688.507 71.4277 688.507 72.3369C688.507 73.2461 688.91 73.8408 689.518 73.8408ZM689.409 80H688.151L691.918 74.8594L695.377 70.1357H696.621L692.793 75.3721L689.409 80ZM697.325 77.792C697.325 79.1865 696.457 80.1709 695.226 80.1709C693.996 80.1709 693.121 79.1865 693.121 77.792C693.121 76.4043 693.996 75.4199 695.226 75.4199C696.457 75.4199 697.325 76.3975 697.325 77.792ZM695.226 79.2959C695.828 79.2959 696.231 78.6943 696.231 77.792C696.231 76.8691 695.842 76.2949 695.226 76.2949C694.611 76.2949 694.215 76.8828 694.215 77.792C694.215 78.7012 694.618 79.2959 695.226 79.2959Z" fill="#1F1F1F"/>
<path d="M445.042 38.7969C445.042 34.7969 448.073 31.9219 452.26 31.9219C456.307 31.9219 459.401 34.6719 459.401 38.25C459.401 40.5938 458.339 42.4219 454.635 46.3906L449.214 52.2188V52.4688H459.776V55H445.182V53.0625L452.979 44.5469C455.885 41.3906 456.589 40.1719 456.589 38.3594C456.589 36.1094 454.667 34.375 452.182 34.375C449.542 34.375 447.76 36.1406 447.76 38.7969V38.8125H445.042V38.7969ZM474.354 55V50.3281H463.37V47.7656C465.385 44.1875 468.964 38.5312 473.026 32.4531H477.104V47.8125H480.307V50.3281H477.104V55H474.354ZM466.245 47.6406V47.8281H474.37V35.0625H474.182C471.87 38.4219 468.932 43.0781 466.245 47.6406Z" fill="black"/>
<path d="M230.829 55L240.954 35.1875V34.9688H228.892V32.4531H243.814V35.0625L233.783 55H230.829ZM248.001 38.7969C248.001 34.7969 251.033 31.9219 255.22 31.9219C259.267 31.9219 262.361 34.6719 262.361 38.25C262.361 40.5938 261.298 42.4219 257.595 46.3906L252.173 52.2188V52.4688H262.736V55H248.142V53.0625L255.939 44.5469C258.845 41.3906 259.548 40.1719 259.548 38.3594C259.548 36.1094 257.626 34.375 255.142 34.375C252.501 34.375 250.72 36.1406 250.72 38.7969V38.8125H248.001V38.7969Z" fill="black"/>
<path d="M658.788 55V35.5781H658.538L652.804 39.7344V36.7656L658.804 32.4531H661.6V55H658.788ZM668.194 38.7969C668.194 34.7969 671.225 31.9219 675.413 31.9219C679.46 31.9219 682.554 34.6719 682.554 38.25C682.554 40.5938 681.491 42.4219 677.788 46.3906L672.366 52.2188V52.4688H682.929V55H668.335V53.0625L676.132 44.5469C679.038 41.3906 679.741 40.1719 679.741 38.3594C679.741 36.1094 677.819 34.375 675.335 34.375C672.694 34.375 670.913 36.1406 670.913 38.7969V38.8125H668.194V38.7969Z" fill="black"/>
<defs>
<clipPath id="clip0_8927_5938">
<rect width="846" height="130" fill="white" transform="translate(0 94)"/>
</clipPath>
</defs>
</svg>
