<svg width="16" height="16" viewBox="0 0 16 16" fill="none" xmlns="http://www.w3.org/2000/svg">
<path d="M3.33333 12.6668V4.66683H6.66667V3.3335H2.66667C2.29848 3.3335 2 3.63197 2 4.00016V13.3335C2 13.7017 2.29848 14.0002 2.66667 14.0002H12C12.3682 14.0002 12.6667 13.7017 12.6667 13.3335V9.3335H11.3333V12.6668H3.33333Z" fill="#3D3D3D"/>
<path d="M13.3333 2.66683V10.6668H12.6667V12.0002H14C14.3682 12.0002 14.6667 11.7017 14.6667 11.3335V2.00016C14.6667 1.63197 14.3682 1.3335 14 1.3335H4.66667C4.29848 1.3335 4 1.63197 4 2.00016V3.3335H5.33333V2.66683H13.3333Z" fill="#3D3D3D"/>
<path d="M12 3.3335C12.3682 3.3335 12.6667 3.63197 12.6667 4.00016V8.00016H11.3333V4.66683H8V3.3335H12Z" fill="#3D3D3D"/>
<path fill-rule="evenodd" clip-rule="evenodd" d="M5.33333 9.3335L11.3333 4.00016L12.2192 4.99671L6.21915 10.33L5.33333 9.3335Z" fill="#3D3D3D"/>
</svg>
